<?xml version="1.0" encoding="UTF-8" standalone="no"?>
<!DOCTYPE svg PUBLIC "-//W3C//DTD SVG 1.1//EN"
 "http://www.w3.org/Graphics/SVG/1.1/DTD/svg11.dtd">
<!-- Generated by graphviz version 2.43.0 (0)
 -->
<!-- Title: %3 Pages: 1 -->
<svg width="243pt" height="391pt"
 viewBox="0.00 0.00 243.00 391.00" xmlns="http://www.w3.org/2000/svg" xmlns:xlink="http://www.w3.org/1999/xlink">
<g id="graph0" class="graph" transform="scale(1 1) rotate(0) translate(4 387)">
<title>%3</title>
<polygon fill="white" stroke="transparent" points="-4,4 -4,-387 239,-387 239,4 -4,4"/>
<!-- 140146262745040 -->
<g id="node1" class="node">
<title>140146262745040</title>
<polygon fill="#caff70" stroke="black" points="141.5,-31 87.5,-31 87.5,0 141.5,0 141.5,-31"/>
<text text-anchor="middle" x="114.5" y="-7" font-family="monospace" font-size="10.00"> ()</text>
</g>
<!-- 140146259396256 -->
<g id="node2" class="node">
<title>140146259396256</title>
<polygon fill="lightgrey" stroke="black" points="171,-86 58,-86 58,-67 171,-67 171,-86"/>
<text text-anchor="middle" x="114.5" y="-74" font-family="monospace" font-size="10.00">NllLossBackward0</text>
</g>
<!-- 140146259396256&#45;&gt;140146262745040 -->
<g id="edge8" class="edge">
<title>140146259396256&#45;&gt;140146262745040</title>
<path fill="none" stroke="black" d="M114.5,-66.79C114.5,-60.07 114.5,-50.4 114.5,-41.34"/>
<polygon fill="black" stroke="black" points="118,-41.19 114.5,-31.19 111,-41.19 118,-41.19"/>
</g>
<!-- 140146259395440 -->
<g id="node3" class="node">
<title>140146259395440</title>
<polygon fill="lightgrey" stroke="black" points="180,-141 49,-141 49,-122 180,-122 180,-141"/>
<text text-anchor="middle" x="114.5" y="-129" font-family="monospace" font-size="10.00">LogSoftmaxBackward0</text>
</g>
<!-- 140146259395440&#45;&gt;140146259396256 -->
<g id="edge1" class="edge">
<title>140146259395440&#45;&gt;140146259396256</title>
<path fill="none" stroke="black" d="M114.5,-121.75C114.5,-114.8 114.5,-104.85 114.5,-96.13"/>
<polygon fill="black" stroke="black" points="118,-96.09 114.5,-86.09 111,-96.09 118,-96.09"/>
</g>
<!-- 140146259396688 -->
<g id="node4" class="node">
<title>140146259396688</title>
<polygon fill="lightgrey" stroke="black" points="165,-196 64,-196 64,-177 165,-177 165,-196"/>
<text text-anchor="middle" x="114.5" y="-184" font-family="monospace" font-size="10.00">AddmmBackward0</text>
</g>
<!-- 140146259396688&#45;&gt;140146259395440 -->
<g id="edge2" class="edge">
<title>140146259396688&#45;&gt;140146259395440</title>
<path fill="none" stroke="black" d="M114.5,-176.75C114.5,-169.8 114.5,-159.85 114.5,-151.13"/>
<polygon fill="black" stroke="black" points="118,-151.09 114.5,-141.09 111,-151.09 118,-151.09"/>
</g>
<!-- 140146259397600 -->
<g id="node5" class="node">
<title>140146259397600</title>
<polygon fill="lightgrey" stroke="black" points="108,-251 7,-251 7,-232 108,-232 108,-251"/>
<text text-anchor="middle" x="57.5" y="-239" font-family="monospace" font-size="10.00">AccumulateGrad</text>
</g>
<!-- 140146259397600&#45;&gt;140146259396688 -->
<g id="edge3" class="edge">
<title>140146259397600&#45;&gt;140146259396688</title>
<path fill="none" stroke="black" d="M66.66,-231.98C75,-224.23 87.53,-212.58 97.68,-203.14"/>
<polygon fill="black" stroke="black" points="100.24,-205.54 105.18,-196.17 95.47,-200.42 100.24,-205.54"/>
</g>
<!-- 140146256480432 -->
<g id="node6" class="node">
<title>140146256480432</title>
<polygon fill="lightblue" stroke="black" points="107,-317 0,-317 0,-287 107,-287 107,-317"/>
<text text-anchor="middle" x="53.5" y="-305" font-family="monospace" font-size="10.00">pipeline.1.bias</text>
<text text-anchor="middle" x="53.5" y="-294" font-family="monospace" font-size="10.00"> (26)</text>
</g>
<!-- 140146256480432&#45;&gt;140146259397600 -->
<g id="edge4" class="edge">
<title>140146256480432&#45;&gt;140146259397600</title>
<path fill="none" stroke="black" d="M54.47,-286.84C54.99,-279.21 55.64,-269.7 56.2,-261.45"/>
<polygon fill="black" stroke="black" points="59.71,-261.48 56.9,-251.27 52.73,-261 59.71,-261.48"/>
</g>
<!-- 140146259396400 -->
<g id="node7" class="node">
<title>140146259396400</title>
<polygon fill="lightgrey" stroke="black" points="210,-251 133,-251 133,-232 210,-232 210,-251"/>
<text text-anchor="middle" x="171.5" y="-239" font-family="monospace" font-size="10.00">TBackward0</text>
</g>
<!-- 140146259396400&#45;&gt;140146259396688 -->
<g id="edge5" class="edge">
<title>140146259396400&#45;&gt;140146259396688</title>
<path fill="none" stroke="black" d="M162.34,-231.98C154,-224.23 141.47,-212.58 131.32,-203.14"/>
<polygon fill="black" stroke="black" points="133.53,-200.42 123.82,-196.17 128.76,-205.54 133.53,-200.42"/>
</g>
<!-- 140146259395536 -->
<g id="node8" class="node">
<title>140146259395536</title>
<polygon fill="lightgrey" stroke="black" points="226,-311.5 125,-311.5 125,-292.5 226,-292.5 226,-311.5"/>
<text text-anchor="middle" x="175.5" y="-299.5" font-family="monospace" font-size="10.00">AccumulateGrad</text>
</g>
<!-- 140146259395536&#45;&gt;140146259396400 -->
<g id="edge6" class="edge">
<title>140146259395536&#45;&gt;140146259396400</title>
<path fill="none" stroke="black" d="M174.91,-292.37C174.35,-284.25 173.5,-271.81 172.79,-261.39"/>
<polygon fill="black" stroke="black" points="176.27,-260.91 172.09,-251.17 169.28,-261.38 176.27,-260.91"/>
</g>
<!-- 140146260486928 -->
<g id="node9" class="node">
<title>140146260486928</title>
<polygon fill="lightblue" stroke="black" points="235,-383 116,-383 116,-353 235,-353 235,-383"/>
<text text-anchor="middle" x="175.5" y="-371" font-family="monospace" font-size="10.00">pipeline.1.weight</text>
<text text-anchor="middle" x="175.5" y="-360" font-family="monospace" font-size="10.00"> (26, 784)</text>
</g>
<!-- 140146260486928&#45;&gt;140146259395536 -->
<g id="edge7" class="edge">
<title>140146260486928&#45;&gt;140146259395536</title>
<path fill="none" stroke="black" d="M175.5,-352.8C175.5,-343.7 175.5,-331.79 175.5,-321.9"/>
<polygon fill="black" stroke="black" points="179,-321.84 175.5,-311.84 172,-321.84 179,-321.84"/>
</g>
</g>
</svg>
