<?xml version="1.0" encoding="UTF-8" standalone="no"?>
<!DOCTYPE svg PUBLIC "-//W3C//DTD SVG 1.1//EN"
 "http://www.w3.org/Graphics/SVG/1.1/DTD/svg11.dtd">
<!-- Generated by graphviz version 2.43.0 (0)
 -->
<!-- Title: %3 Pages: 1 -->
<svg width="770pt" height="1069pt"
 viewBox="0.00 0.00 770.30 1069.00" xmlns="http://www.w3.org/2000/svg" xmlns:xlink="http://www.w3.org/1999/xlink">
<g id="graph0" class="graph" transform="scale(1.17 1.17) rotate(0) translate(4 1245)">
<title>%3</title>
<polygon fill="white" stroke="transparent" points="-4,4 -4,-1245 896,-1245 896,4 -4,4"/>
<!-- 140146260180352 -->
<g id="node1" class="node">
<title>140146260180352</title>
<polygon fill="#caff70" stroke="black" points="659.5,-31 605.5,-31 605.5,0 659.5,0 659.5,-31"/>
<text text-anchor="middle" x="632.5" y="-7" font-family="monospace" font-size="10.00"> ()</text>
</g>
<!-- 140146259402112 -->
<g id="node2" class="node">
<title>140146259402112</title>
<polygon fill="lightgrey" stroke="black" points="689,-86 576,-86 576,-67 689,-67 689,-86"/>
<text text-anchor="middle" x="632.5" y="-74" font-family="monospace" font-size="10.00">NllLossBackward0</text>
</g>
<!-- 140146259402112&#45;&gt;140146260180352 -->
<g id="edge49" class="edge">
<title>140146259402112&#45;&gt;140146260180352</title>
<path fill="none" stroke="black" d="M632.5,-66.79C632.5,-60.07 632.5,-50.4 632.5,-41.34"/>
<polygon fill="black" stroke="black" points="636,-41.19 632.5,-31.19 629,-41.19 636,-41.19"/>
</g>
<!-- 140146259409936 -->
<g id="node3" class="node">
<title>140146259409936</title>
<polygon fill="lightgrey" stroke="black" points="698,-141 567,-141 567,-122 698,-122 698,-141"/>
<text text-anchor="middle" x="632.5" y="-129" font-family="monospace" font-size="10.00">LogSoftmaxBackward0</text>
</g>
<!-- 140146259409936&#45;&gt;140146259402112 -->
<g id="edge1" class="edge">
<title>140146259409936&#45;&gt;140146259402112</title>
<path fill="none" stroke="black" d="M632.5,-121.75C632.5,-114.8 632.5,-104.85 632.5,-96.13"/>
<polygon fill="black" stroke="black" points="636,-96.09 632.5,-86.09 629,-96.09 636,-96.09"/>
</g>
<!-- 140146259399760 -->
<g id="node4" class="node">
<title>140146259399760</title>
<polygon fill="lightgrey" stroke="black" points="683,-196 582,-196 582,-177 683,-177 683,-196"/>
<text text-anchor="middle" x="632.5" y="-184" font-family="monospace" font-size="10.00">AddmmBackward0</text>
</g>
<!-- 140146259399760&#45;&gt;140146259409936 -->
<g id="edge2" class="edge">
<title>140146259399760&#45;&gt;140146259409936</title>
<path fill="none" stroke="black" d="M632.5,-176.75C632.5,-169.8 632.5,-159.85 632.5,-151.13"/>
<polygon fill="black" stroke="black" points="636,-151.09 632.5,-141.09 629,-151.09 636,-151.09"/>
</g>
<!-- 140146259398128 -->
<g id="node5" class="node">
<title>140146259398128</title>
<polygon fill="lightgrey" stroke="black" points="563,-251 462,-251 462,-232 563,-232 563,-251"/>
<text text-anchor="middle" x="512.5" y="-239" font-family="monospace" font-size="10.00">AccumulateGrad</text>
</g>
<!-- 140146259398128&#45;&gt;140146259399760 -->
<g id="edge3" class="edge">
<title>140146259398128&#45;&gt;140146259399760</title>
<path fill="none" stroke="black" d="M531.78,-231.98C551.17,-223.42 581.31,-210.11 603.57,-200.28"/>
<polygon fill="black" stroke="black" points="605.14,-203.41 612.87,-196.17 602.31,-197.01 605.14,-203.41"/>
</g>
<!-- 140146259437072 -->
<g id="node6" class="node">
<title>140146259437072</title>
<polygon fill="lightblue" stroke="black" points="564,-317 451,-317 451,-287 564,-287 564,-317"/>
<text text-anchor="middle" x="507.5" y="-305" font-family="monospace" font-size="10.00">pipeline.15.bias</text>
<text text-anchor="middle" x="507.5" y="-294" font-family="monospace" font-size="10.00"> (26)</text>
</g>
<!-- 140146259437072&#45;&gt;140146259398128 -->
<g id="edge4" class="edge">
<title>140146259437072&#45;&gt;140146259398128</title>
<path fill="none" stroke="black" d="M508.71,-286.84C509.36,-279.21 510.17,-269.7 510.88,-261.45"/>
<polygon fill="black" stroke="black" points="514.39,-261.53 511.75,-251.27 507.41,-260.93 514.39,-261.53"/>
</g>
<!-- 140146259399664 -->
<g id="node7" class="node">
<title>140146259399664</title>
<polygon fill="lightgrey" stroke="black" points="680,-251 585,-251 585,-232 680,-232 680,-251"/>
<text text-anchor="middle" x="632.5" y="-239" font-family="monospace" font-size="10.00">ReluBackward0</text>
</g>
<!-- 140146259399664&#45;&gt;140146259399760 -->
<g id="edge5" class="edge">
<title>140146259399664&#45;&gt;140146259399760</title>
<path fill="none" stroke="black" d="M632.5,-231.75C632.5,-224.8 632.5,-214.85 632.5,-206.13"/>
<polygon fill="black" stroke="black" points="636,-206.09 632.5,-196.09 629,-206.09 636,-206.09"/>
</g>
<!-- 140146259402592 -->
<g id="node8" class="node">
<title>140146259402592</title>
<polygon fill="lightgrey" stroke="black" points="683,-311.5 582,-311.5 582,-292.5 683,-292.5 683,-311.5"/>
<text text-anchor="middle" x="632.5" y="-299.5" font-family="monospace" font-size="10.00">AddmmBackward0</text>
</g>
<!-- 140146259402592&#45;&gt;140146259399664 -->
<g id="edge6" class="edge">
<title>140146259402592&#45;&gt;140146259399664</title>
<path fill="none" stroke="black" d="M632.5,-292.37C632.5,-284.25 632.5,-271.81 632.5,-261.39"/>
<polygon fill="black" stroke="black" points="636,-261.17 632.5,-251.17 629,-261.17 636,-261.17"/>
</g>
<!-- 140146259404800 -->
<g id="node9" class="node">
<title>140146259404800</title>
<polygon fill="lightgrey" stroke="black" points="537,-377.5 436,-377.5 436,-358.5 537,-358.5 537,-377.5"/>
<text text-anchor="middle" x="486.5" y="-365.5" font-family="monospace" font-size="10.00">AccumulateGrad</text>
</g>
<!-- 140146259404800&#45;&gt;140146259402592 -->
<g id="edge7" class="edge">
<title>140146259404800&#45;&gt;140146259402592</title>
<path fill="none" stroke="black" d="M506.19,-358.37C531.23,-347.39 574.65,-328.36 603.48,-315.72"/>
<polygon fill="black" stroke="black" points="604.9,-318.92 612.66,-311.7 602.09,-312.51 604.9,-318.92"/>
</g>
<!-- 140146259436912 -->
<g id="node10" class="node">
<title>140146259436912</title>
<polygon fill="lightblue" stroke="black" points="538,-449 425,-449 425,-419 538,-419 538,-449"/>
<text text-anchor="middle" x="481.5" y="-437" font-family="monospace" font-size="10.00">pipeline.13.bias</text>
<text text-anchor="middle" x="481.5" y="-426" font-family="monospace" font-size="10.00"> (128)</text>
</g>
<!-- 140146259436912&#45;&gt;140146259404800 -->
<g id="edge8" class="edge">
<title>140146259436912&#45;&gt;140146259404800</title>
<path fill="none" stroke="black" d="M482.61,-418.8C483.32,-409.7 484.25,-397.79 485.02,-387.9"/>
<polygon fill="black" stroke="black" points="488.52,-388.09 485.81,-377.84 481.54,-387.54 488.52,-388.09"/>
</g>
<!-- 140146259404656 -->
<g id="node11" class="node">
<title>140146259404656</title>
<polygon fill="lightgrey" stroke="black" points="654,-377.5 559,-377.5 559,-358.5 654,-358.5 654,-377.5"/>
<text text-anchor="middle" x="606.5" y="-365.5" font-family="monospace" font-size="10.00">ReluBackward0</text>
</g>
<!-- 140146259404656&#45;&gt;140146259402592 -->
<g id="edge9" class="edge">
<title>140146259404656&#45;&gt;140146259402592</title>
<path fill="none" stroke="black" d="M610.01,-358.37C613.82,-348.97 620.04,-333.67 624.97,-321.53"/>
<polygon fill="black" stroke="black" points="628.36,-322.49 628.88,-311.91 621.88,-319.85 628.36,-322.49"/>
</g>
<!-- 140146259408352 -->
<g id="node12" class="node">
<title>140146259408352</title>
<polygon fill="lightgrey" stroke="black" points="657,-443.5 556,-443.5 556,-424.5 657,-424.5 657,-443.5"/>
<text text-anchor="middle" x="606.5" y="-431.5" font-family="monospace" font-size="10.00">AddmmBackward0</text>
</g>
<!-- 140146259408352&#45;&gt;140146259404656 -->
<g id="edge10" class="edge">
<title>140146259408352&#45;&gt;140146259404656</title>
<path fill="none" stroke="black" d="M606.5,-424.37C606.5,-415.16 606.5,-400.29 606.5,-388.27"/>
<polygon fill="black" stroke="black" points="610,-387.91 606.5,-377.91 603,-387.91 610,-387.91"/>
</g>
<!-- 140146259400192 -->
<g id="node13" class="node">
<title>140146259400192</title>
<polygon fill="lightgrey" stroke="black" points="488,-509.5 387,-509.5 387,-490.5 488,-490.5 488,-509.5"/>
<text text-anchor="middle" x="437.5" y="-497.5" font-family="monospace" font-size="10.00">AccumulateGrad</text>
</g>
<!-- 140146259400192&#45;&gt;140146259408352 -->
<g id="edge11" class="edge">
<title>140146259400192&#45;&gt;140146259408352</title>
<path fill="none" stroke="black" d="M460.29,-490.37C489.6,-479.27 540.7,-459.92 574.06,-447.28"/>
<polygon fill="black" stroke="black" points="575.69,-450.41 583.8,-443.6 573.21,-443.86 575.69,-450.41"/>
</g>
<!-- 140146259436752 -->
<g id="node14" class="node">
<title>140146259436752</title>
<polygon fill="lightblue" stroke="black" points="467,-581 354,-581 354,-551 467,-551 467,-581"/>
<text text-anchor="middle" x="410.5" y="-569" font-family="monospace" font-size="10.00">pipeline.11.bias</text>
<text text-anchor="middle" x="410.5" y="-558" font-family="monospace" font-size="10.00"> (512)</text>
</g>
<!-- 140146259436752&#45;&gt;140146259400192 -->
<g id="edge12" class="edge">
<title>140146259436752&#45;&gt;140146259400192</title>
<path fill="none" stroke="black" d="M416.49,-550.8C420.41,-541.5 425.57,-529.27 429.8,-519.26"/>
<polygon fill="black" stroke="black" points="433.11,-520.42 433.77,-509.84 426.66,-517.7 433.11,-520.42"/>
</g>
<!-- 140146259408256 -->
<g id="node15" class="node">
<title>140146259408256</title>
<polygon fill="lightgrey" stroke="black" points="628,-509.5 533,-509.5 533,-490.5 628,-490.5 628,-509.5"/>
<text text-anchor="middle" x="580.5" y="-497.5" font-family="monospace" font-size="10.00">ViewBackward0</text>
</g>
<!-- 140146259408256&#45;&gt;140146259408352 -->
<g id="edge13" class="edge">
<title>140146259408256&#45;&gt;140146259408352</title>
<path fill="none" stroke="black" d="M584.01,-490.37C587.82,-480.97 594.04,-465.67 598.97,-453.53"/>
<polygon fill="black" stroke="black" points="602.36,-454.49 602.88,-443.91 595.88,-451.85 602.36,-454.49"/>
</g>
<!-- 140146259410896 -->
<g id="node16" class="node">
<title>140146259410896</title>
<polygon fill="lightgrey" stroke="black" points="676,-575.5 485,-575.5 485,-556.5 676,-556.5 676,-575.5"/>
<text text-anchor="middle" x="580.5" y="-563.5" font-family="monospace" font-size="10.00">MaxPool2DWithIndicesBackward0</text>
</g>
<!-- 140146259410896&#45;&gt;140146259408256 -->
<g id="edge14" class="edge">
<title>140146259410896&#45;&gt;140146259408256</title>
<path fill="none" stroke="black" d="M580.5,-556.37C580.5,-547.16 580.5,-532.29 580.5,-520.27"/>
<polygon fill="black" stroke="black" points="584,-519.91 580.5,-509.91 577,-519.91 584,-519.91"/>
</g>
<!-- 140146259410512 -->
<g id="node17" class="node">
<title>140146259410512</title>
<polygon fill="lightgrey" stroke="black" points="628,-641.5 533,-641.5 533,-622.5 628,-622.5 628,-641.5"/>
<text text-anchor="middle" x="580.5" y="-629.5" font-family="monospace" font-size="10.00">ReluBackward0</text>
</g>
<!-- 140146259410512&#45;&gt;140146259410896 -->
<g id="edge15" class="edge">
<title>140146259410512&#45;&gt;140146259410896</title>
<path fill="none" stroke="black" d="M580.5,-622.37C580.5,-613.16 580.5,-598.29 580.5,-586.27"/>
<polygon fill="black" stroke="black" points="584,-585.91 580.5,-575.91 577,-585.91 584,-585.91"/>
</g>
<!-- 140146259402064 -->
<g id="node18" class="node">
<title>140146259402064</title>
<polygon fill="lightgrey" stroke="black" points="649,-702 512,-702 512,-683 649,-683 649,-702"/>
<text text-anchor="middle" x="580.5" y="-690" font-family="monospace" font-size="10.00">ConvolutionBackward0</text>
</g>
<!-- 140146259402064&#45;&gt;140146259410512 -->
<g id="edge16" class="edge">
<title>140146259402064&#45;&gt;140146259410512</title>
<path fill="none" stroke="black" d="M580.5,-682.87C580.5,-674.75 580.5,-662.31 580.5,-651.89"/>
<polygon fill="black" stroke="black" points="584,-651.67 580.5,-641.67 577,-651.67 584,-651.67"/>
</g>
<!-- 140146259401584 -->
<g id="node19" class="node">
<title>140146259401584</title>
<polygon fill="lightgrey" stroke="black" points="497,-757 402,-757 402,-738 497,-738 497,-757"/>
<text text-anchor="middle" x="449.5" y="-745" font-family="monospace" font-size="10.00">ReluBackward0</text>
</g>
<!-- 140146259401584&#45;&gt;140146259402064 -->
<g id="edge17" class="edge">
<title>140146259401584&#45;&gt;140146259402064</title>
<path fill="none" stroke="black" d="M470.55,-737.98C491.91,-729.34 525.2,-715.87 549.56,-706.02"/>
<polygon fill="black" stroke="black" points="551.11,-709.17 559.07,-702.17 548.49,-702.68 551.11,-709.17"/>
</g>
<!-- 140146259401632 -->
<g id="node20" class="node">
<title>140146259401632</title>
<polygon fill="lightgrey" stroke="black" points="503,-817.5 366,-817.5 366,-798.5 503,-798.5 503,-817.5"/>
<text text-anchor="middle" x="434.5" y="-805.5" font-family="monospace" font-size="10.00">ConvolutionBackward0</text>
</g>
<!-- 140146259401632&#45;&gt;140146259401584 -->
<g id="edge18" class="edge">
<title>140146259401632&#45;&gt;140146259401584</title>
<path fill="none" stroke="black" d="M436.71,-798.37C438.82,-790.16 442.05,-777.54 444.74,-767.05"/>
<polygon fill="black" stroke="black" points="448.18,-767.72 447.28,-757.17 441.4,-765.98 448.18,-767.72"/>
</g>
<!-- 140146259395488 -->
<g id="node21" class="node">
<title>140146259395488</title>
<polygon fill="lightgrey" stroke="black" points="366,-878 175,-878 175,-859 366,-859 366,-878"/>
<text text-anchor="middle" x="270.5" y="-866" font-family="monospace" font-size="10.00">MaxPool2DWithIndicesBackward0</text>
</g>
<!-- 140146259395488&#45;&gt;140146259401632 -->
<g id="edge19" class="edge">
<title>140146259395488&#45;&gt;140146259401632</title>
<path fill="none" stroke="black" d="M294.35,-858.99C322.4,-848.99 369.17,-832.3 400.9,-820.99"/>
<polygon fill="black" stroke="black" points="402.38,-824.17 410.62,-817.52 400.03,-817.58 402.38,-824.17"/>
</g>
<!-- 140146259406720 -->
<g id="node22" class="node">
<title>140146259406720</title>
<polygon fill="lightgrey" stroke="black" points="318,-938.5 223,-938.5 223,-919.5 318,-919.5 318,-938.5"/>
<text text-anchor="middle" x="270.5" y="-926.5" font-family="monospace" font-size="10.00">ReluBackward0</text>
</g>
<!-- 140146259406720&#45;&gt;140146259395488 -->
<g id="edge20" class="edge">
<title>140146259406720&#45;&gt;140146259395488</title>
<path fill="none" stroke="black" d="M270.5,-919.37C270.5,-911.25 270.5,-898.81 270.5,-888.39"/>
<polygon fill="black" stroke="black" points="274,-888.17 270.5,-878.17 267,-888.17 274,-888.17"/>
</g>
<!-- 140146259407200 -->
<g id="node23" class="node">
<title>140146259407200</title>
<polygon fill="lightgrey" stroke="black" points="339,-999 202,-999 202,-980 339,-980 339,-999"/>
<text text-anchor="middle" x="270.5" y="-987" font-family="monospace" font-size="10.00">ConvolutionBackward0</text>
</g>
<!-- 140146259407200&#45;&gt;140146259406720 -->
<g id="edge21" class="edge">
<title>140146259407200&#45;&gt;140146259406720</title>
<path fill="none" stroke="black" d="M270.5,-979.87C270.5,-971.75 270.5,-959.31 270.5,-948.89"/>
<polygon fill="black" stroke="black" points="274,-948.67 270.5,-938.67 267,-948.67 274,-948.67"/>
</g>
<!-- 140146259403744 -->
<g id="node24" class="node">
<title>140146259403744</title>
<polygon fill="lightgrey" stroke="black" points="187,-1054 92,-1054 92,-1035 187,-1035 187,-1054"/>
<text text-anchor="middle" x="139.5" y="-1042" font-family="monospace" font-size="10.00">ReluBackward0</text>
</g>
<!-- 140146259403744&#45;&gt;140146259407200 -->
<g id="edge22" class="edge">
<title>140146259403744&#45;&gt;140146259407200</title>
<path fill="none" stroke="black" d="M160.55,-1034.98C181.91,-1026.34 215.2,-1012.87 239.56,-1003.02"/>
<polygon fill="black" stroke="black" points="241.11,-1006.17 249.07,-999.17 238.49,-999.68 241.11,-1006.17"/>
</g>
<!-- 140146259401392 -->
<g id="node25" class="node">
<title>140146259401392</title>
<polygon fill="lightgrey" stroke="black" points="193,-1114.5 56,-1114.5 56,-1095.5 193,-1095.5 193,-1114.5"/>
<text text-anchor="middle" x="124.5" y="-1102.5" font-family="monospace" font-size="10.00">ConvolutionBackward0</text>
</g>
<!-- 140146259401392&#45;&gt;140146259403744 -->
<g id="edge23" class="edge">
<title>140146259401392&#45;&gt;140146259403744</title>
<path fill="none" stroke="black" d="M126.71,-1095.37C128.82,-1087.16 132.05,-1074.54 134.74,-1064.05"/>
<polygon fill="black" stroke="black" points="138.18,-1064.72 137.28,-1054.17 131.4,-1062.98 138.18,-1064.72"/>
</g>
<!-- 140146259404896 -->
<g id="node26" class="node">
<title>140146259404896</title>
<polygon fill="lightgrey" stroke="black" points="116,-1175 15,-1175 15,-1156 116,-1156 116,-1175"/>
<text text-anchor="middle" x="65.5" y="-1163" font-family="monospace" font-size="10.00">AccumulateGrad</text>
</g>
<!-- 140146259404896&#45;&gt;140146259401392 -->
<g id="edge24" class="edge">
<title>140146259404896&#45;&gt;140146259401392</title>
<path fill="none" stroke="black" d="M74.21,-1155.87C83.18,-1146.97 97.38,-1132.89 108.41,-1121.95"/>
<polygon fill="black" stroke="black" points="111.12,-1124.19 115.76,-1114.67 106.19,-1119.22 111.12,-1124.19"/>
</g>
<!-- 140146259435792 -->
<g id="node27" class="node">
<title>140146259435792</title>
<polygon fill="lightblue" stroke="black" points="119,-1241 0,-1241 0,-1211 119,-1211 119,-1241"/>
<text text-anchor="middle" x="59.5" y="-1229" font-family="monospace" font-size="10.00">pipeline.0.weight</text>
<text text-anchor="middle" x="59.5" y="-1218" font-family="monospace" font-size="10.00"> (100, 1, 5, 5)</text>
</g>
<!-- 140146259435792&#45;&gt;140146259404896 -->
<g id="edge25" class="edge">
<title>140146259435792&#45;&gt;140146259404896</title>
<path fill="none" stroke="black" d="M60.95,-1210.84C61.73,-1203.21 62.71,-1193.7 63.56,-1185.45"/>
<polygon fill="black" stroke="black" points="67.06,-1185.57 64.6,-1175.27 60.1,-1184.86 67.06,-1185.57"/>
</g>
<!-- 140146259403936 -->
<g id="node28" class="node">
<title>140146259403936</title>
<polygon fill="lightgrey" stroke="black" points="238,-1175 137,-1175 137,-1156 238,-1156 238,-1175"/>
<text text-anchor="middle" x="187.5" y="-1163" font-family="monospace" font-size="10.00">AccumulateGrad</text>
</g>
<!-- 140146259403936&#45;&gt;140146259401392 -->
<g id="edge26" class="edge">
<title>140146259403936&#45;&gt;140146259401392</title>
<path fill="none" stroke="black" d="M178.2,-1155.87C168.53,-1146.88 153.16,-1132.61 141.34,-1121.64"/>
<polygon fill="black" stroke="black" points="143.54,-1118.91 133.83,-1114.67 138.78,-1124.04 143.54,-1118.91"/>
</g>
<!-- 140146259435872 -->
<g id="node29" class="node">
<title>140146259435872</title>
<polygon fill="lightblue" stroke="black" points="244,-1241 137,-1241 137,-1211 244,-1211 244,-1241"/>
<text text-anchor="middle" x="190.5" y="-1229" font-family="monospace" font-size="10.00">pipeline.0.bias</text>
<text text-anchor="middle" x="190.5" y="-1218" font-family="monospace" font-size="10.00"> (100)</text>
</g>
<!-- 140146259435872&#45;&gt;140146259403936 -->
<g id="edge27" class="edge">
<title>140146259435872&#45;&gt;140146259403936</title>
<path fill="none" stroke="black" d="M189.77,-1210.84C189.38,-1203.21 188.9,-1193.7 188.47,-1185.45"/>
<polygon fill="black" stroke="black" points="191.96,-1185.07 187.95,-1175.27 184.97,-1185.43 191.96,-1185.07"/>
</g>
<!-- 140146259395392 -->
<g id="node30" class="node">
<title>140146259395392</title>
<polygon fill="lightgrey" stroke="black" points="321,-1054 220,-1054 220,-1035 321,-1035 321,-1054"/>
<text text-anchor="middle" x="270.5" y="-1042" font-family="monospace" font-size="10.00">AccumulateGrad</text>
</g>
<!-- 140146259395392&#45;&gt;140146259407200 -->
<g id="edge28" class="edge">
<title>140146259395392&#45;&gt;140146259407200</title>
<path fill="none" stroke="black" d="M270.5,-1034.75C270.5,-1027.8 270.5,-1017.85 270.5,-1009.13"/>
<polygon fill="black" stroke="black" points="274,-1009.09 270.5,-999.09 267,-1009.09 274,-1009.09"/>
</g>
<!-- 140146259436032 -->
<g id="node31" class="node">
<title>140146259436032</title>
<polygon fill="lightblue" stroke="black" points="330,-1120 211,-1120 211,-1090 330,-1090 330,-1120"/>
<text text-anchor="middle" x="270.5" y="-1108" font-family="monospace" font-size="10.00">pipeline.2.weight</text>
<text text-anchor="middle" x="270.5" y="-1097" font-family="monospace" font-size="10.00"> (50, 100, 3, 3)</text>
</g>
<!-- 140146259436032&#45;&gt;140146259395392 -->
<g id="edge29" class="edge">
<title>140146259436032&#45;&gt;140146259395392</title>
<path fill="none" stroke="black" d="M270.5,-1089.84C270.5,-1082.21 270.5,-1072.7 270.5,-1064.45"/>
<polygon fill="black" stroke="black" points="274,-1064.27 270.5,-1054.27 267,-1064.27 274,-1064.27"/>
</g>
<!-- 140146259408736 -->
<g id="node32" class="node">
<title>140146259408736</title>
<polygon fill="lightgrey" stroke="black" points="446,-1054 345,-1054 345,-1035 446,-1035 446,-1054"/>
<text text-anchor="middle" x="395.5" y="-1042" font-family="monospace" font-size="10.00">AccumulateGrad</text>
</g>
<!-- 140146259408736&#45;&gt;140146259407200 -->
<g id="edge30" class="edge">
<title>140146259408736&#45;&gt;140146259407200</title>
<path fill="none" stroke="black" d="M375.42,-1034.98C355.13,-1026.38 323.54,-1012.99 300.33,-1003.15"/>
<polygon fill="black" stroke="black" points="301.52,-999.85 290.95,-999.17 298.79,-1006.3 301.52,-999.85"/>
</g>
<!-- 140146259436112 -->
<g id="node33" class="node">
<title>140146259436112</title>
<polygon fill="lightblue" stroke="black" points="455,-1120 348,-1120 348,-1090 455,-1090 455,-1120"/>
<text text-anchor="middle" x="401.5" y="-1108" font-family="monospace" font-size="10.00">pipeline.2.bias</text>
<text text-anchor="middle" x="401.5" y="-1097" font-family="monospace" font-size="10.00"> (50)</text>
</g>
<!-- 140146259436112&#45;&gt;140146259408736 -->
<g id="edge31" class="edge">
<title>140146259436112&#45;&gt;140146259408736</title>
<path fill="none" stroke="black" d="M400.05,-1089.84C399.27,-1082.21 398.29,-1072.7 397.44,-1064.45"/>
<polygon fill="black" stroke="black" points="400.9,-1063.86 396.4,-1054.27 393.94,-1064.57 400.9,-1063.86"/>
</g>
<!-- 140146259395248 -->
<g id="node34" class="node">
<title>140146259395248</title>
<polygon fill="lightgrey" stroke="black" points="485,-878 384,-878 384,-859 485,-859 485,-878"/>
<text text-anchor="middle" x="434.5" y="-866" font-family="monospace" font-size="10.00">AccumulateGrad</text>
</g>
<!-- 140146259395248&#45;&gt;140146259401632 -->
<g id="edge32" class="edge">
<title>140146259395248&#45;&gt;140146259401632</title>
<path fill="none" stroke="black" d="M434.5,-858.87C434.5,-850.75 434.5,-838.31 434.5,-827.89"/>
<polygon fill="black" stroke="black" points="438,-827.67 434.5,-817.67 431,-827.67 438,-827.67"/>
</g>
<!-- 140146259436272 -->
<g id="node35" class="node">
<title>140146259436272</title>
<polygon fill="lightblue" stroke="black" points="491,-944 372,-944 372,-914 491,-914 491,-944"/>
<text text-anchor="middle" x="431.5" y="-932" font-family="monospace" font-size="10.00">pipeline.5.weight</text>
<text text-anchor="middle" x="431.5" y="-921" font-family="monospace" font-size="10.00"> (50, 50, 3, 3)</text>
</g>
<!-- 140146259436272&#45;&gt;140146259395248 -->
<g id="edge33" class="edge">
<title>140146259436272&#45;&gt;140146259395248</title>
<path fill="none" stroke="black" d="M432.23,-913.84C432.62,-906.21 433.1,-896.7 433.53,-888.45"/>
<polygon fill="black" stroke="black" points="437.03,-888.43 434.05,-878.27 430.04,-888.07 437.03,-888.43"/>
</g>
<!-- 140146259401536 -->
<g id="node36" class="node">
<title>140146259401536</title>
<polygon fill="lightgrey" stroke="black" points="607,-878 506,-878 506,-859 607,-859 607,-878"/>
<text text-anchor="middle" x="556.5" y="-866" font-family="monospace" font-size="10.00">AccumulateGrad</text>
</g>
<!-- 140146259401536&#45;&gt;140146259401632 -->
<g id="edge34" class="edge">
<title>140146259401536&#45;&gt;140146259401632</title>
<path fill="none" stroke="black" d="M538.76,-858.99C518.43,-849.25 484.89,-833.16 461.36,-821.88"/>
<polygon fill="black" stroke="black" points="462.79,-818.68 452.26,-817.52 459.76,-825 462.79,-818.68"/>
</g>
<!-- 140146259436352 -->
<g id="node37" class="node">
<title>140146259436352</title>
<polygon fill="lightblue" stroke="black" points="616,-944 509,-944 509,-914 616,-914 616,-944"/>
<text text-anchor="middle" x="562.5" y="-932" font-family="monospace" font-size="10.00">pipeline.5.bias</text>
<text text-anchor="middle" x="562.5" y="-921" font-family="monospace" font-size="10.00"> (50)</text>
</g>
<!-- 140146259436352&#45;&gt;140146259401536 -->
<g id="edge35" class="edge">
<title>140146259436352&#45;&gt;140146259401536</title>
<path fill="none" stroke="black" d="M561.05,-913.84C560.27,-906.21 559.29,-896.7 558.44,-888.45"/>
<polygon fill="black" stroke="black" points="561.9,-887.86 557.4,-878.27 554.94,-888.57 561.9,-887.86"/>
</g>
<!-- 140146259408640 -->
<g id="node38" class="node">
<title>140146259408640</title>
<polygon fill="lightgrey" stroke="black" points="631,-757 530,-757 530,-738 631,-738 631,-757"/>
<text text-anchor="middle" x="580.5" y="-745" font-family="monospace" font-size="10.00">AccumulateGrad</text>
</g>
<!-- 140146259408640&#45;&gt;140146259402064 -->
<g id="edge36" class="edge">
<title>140146259408640&#45;&gt;140146259402064</title>
<path fill="none" stroke="black" d="M580.5,-737.75C580.5,-730.8 580.5,-720.85 580.5,-712.13"/>
<polygon fill="black" stroke="black" points="584,-712.09 580.5,-702.09 577,-712.09 584,-712.09"/>
</g>
<!-- 140146259436512 -->
<g id="node39" class="node">
<title>140146259436512</title>
<polygon fill="lightblue" stroke="black" points="640,-823 521,-823 521,-793 640,-793 640,-823"/>
<text text-anchor="middle" x="580.5" y="-811" font-family="monospace" font-size="10.00">pipeline.7.weight</text>
<text text-anchor="middle" x="580.5" y="-800" font-family="monospace" font-size="10.00"> (50, 50, 3, 3)</text>
</g>
<!-- 140146259436512&#45;&gt;140146259408640 -->
<g id="edge37" class="edge">
<title>140146259436512&#45;&gt;140146259408640</title>
<path fill="none" stroke="black" d="M580.5,-792.84C580.5,-785.21 580.5,-775.7 580.5,-767.45"/>
<polygon fill="black" stroke="black" points="584,-767.27 580.5,-757.27 577,-767.27 584,-767.27"/>
</g>
<!-- 140146259409504 -->
<g id="node40" class="node">
<title>140146259409504</title>
<polygon fill="lightgrey" stroke="black" points="756,-757 655,-757 655,-738 756,-738 756,-757"/>
<text text-anchor="middle" x="705.5" y="-745" font-family="monospace" font-size="10.00">AccumulateGrad</text>
</g>
<!-- 140146259409504&#45;&gt;140146259402064 -->
<g id="edge38" class="edge">
<title>140146259409504&#45;&gt;140146259402064</title>
<path fill="none" stroke="black" d="M685.42,-737.98C665.13,-729.38 633.54,-715.99 610.33,-706.15"/>
<polygon fill="black" stroke="black" points="611.52,-702.85 600.95,-702.17 608.79,-709.3 611.52,-702.85"/>
</g>
<!-- 140146259436592 -->
<g id="node41" class="node">
<title>140146259436592</title>
<polygon fill="lightblue" stroke="black" points="765,-823 658,-823 658,-793 765,-793 765,-823"/>
<text text-anchor="middle" x="711.5" y="-811" font-family="monospace" font-size="10.00">pipeline.7.bias</text>
<text text-anchor="middle" x="711.5" y="-800" font-family="monospace" font-size="10.00"> (50)</text>
</g>
<!-- 140146259436592&#45;&gt;140146259409504 -->
<g id="edge39" class="edge">
<title>140146259436592&#45;&gt;140146259409504</title>
<path fill="none" stroke="black" d="M710.05,-792.84C709.27,-785.21 708.29,-775.7 707.44,-767.45"/>
<polygon fill="black" stroke="black" points="710.9,-766.86 706.4,-757.27 703.94,-767.57 710.9,-766.86"/>
</g>
<!-- 140146259408208 -->
<g id="node42" class="node">
<title>140146259408208</title>
<polygon fill="lightgrey" stroke="black" points="723,-509.5 646,-509.5 646,-490.5 723,-490.5 723,-509.5"/>
<text text-anchor="middle" x="684.5" y="-497.5" font-family="monospace" font-size="10.00">TBackward0</text>
</g>
<!-- 140146259408208&#45;&gt;140146259408352 -->
<g id="edge40" class="edge">
<title>140146259408208&#45;&gt;140146259408352</title>
<path fill="none" stroke="black" d="M673.98,-490.37C661.42,-480.06 640.19,-462.65 624.9,-450.09"/>
<polygon fill="black" stroke="black" points="627.05,-447.34 617.1,-443.7 622.61,-452.75 627.05,-447.34"/>
</g>
<!-- 140146259402928 -->
<g id="node43" class="node">
<title>140146259402928</title>
<polygon fill="lightgrey" stroke="black" points="795,-575.5 694,-575.5 694,-556.5 795,-556.5 795,-575.5"/>
<text text-anchor="middle" x="744.5" y="-563.5" font-family="monospace" font-size="10.00">AccumulateGrad</text>
</g>
<!-- 140146259402928&#45;&gt;140146259408208 -->
<g id="edge41" class="edge">
<title>140146259402928&#45;&gt;140146259408208</title>
<path fill="none" stroke="black" d="M736.41,-556.37C727.07,-546.4 711.49,-529.79 699.84,-517.36"/>
<polygon fill="black" stroke="black" points="702.24,-514.81 692.85,-509.91 697.13,-519.59 702.24,-514.81"/>
</g>
<!-- 140146259436672 -->
<g id="node44" class="node">
<title>140146259436672</title>
<polygon fill="lightblue" stroke="black" points="807,-647 682,-647 682,-617 807,-617 807,-647"/>
<text text-anchor="middle" x="744.5" y="-635" font-family="monospace" font-size="10.00">pipeline.11.weight</text>
<text text-anchor="middle" x="744.5" y="-624" font-family="monospace" font-size="10.00"> (512, 450)</text>
</g>
<!-- 140146259436672&#45;&gt;140146259402928 -->
<g id="edge42" class="edge">
<title>140146259436672&#45;&gt;140146259402928</title>
<path fill="none" stroke="black" d="M744.5,-616.8C744.5,-607.7 744.5,-595.79 744.5,-585.9"/>
<polygon fill="black" stroke="black" points="748,-585.84 744.5,-575.84 741,-585.84 748,-585.84"/>
</g>
<!-- 140146259404608 -->
<g id="node45" class="node">
<title>140146259404608</title>
<polygon fill="lightgrey" stroke="black" points="749,-377.5 672,-377.5 672,-358.5 749,-358.5 749,-377.5"/>
<text text-anchor="middle" x="710.5" y="-365.5" font-family="monospace" font-size="10.00">TBackward0</text>
</g>
<!-- 140146259404608&#45;&gt;140146259402592 -->
<g id="edge43" class="edge">
<title>140146259404608&#45;&gt;140146259402592</title>
<path fill="none" stroke="black" d="M699.98,-358.37C687.42,-348.06 666.19,-330.65 650.9,-318.09"/>
<polygon fill="black" stroke="black" points="653.05,-315.34 643.1,-311.7 648.61,-320.75 653.05,-315.34"/>
</g>
<!-- 140146259395584 -->
<g id="node46" class="node">
<title>140146259395584</title>
<polygon fill="lightgrey" stroke="black" points="828,-443.5 727,-443.5 727,-424.5 828,-424.5 828,-443.5"/>
<text text-anchor="middle" x="777.5" y="-431.5" font-family="monospace" font-size="10.00">AccumulateGrad</text>
</g>
<!-- 140146259395584&#45;&gt;140146259404608 -->
<g id="edge44" class="edge">
<title>140146259395584&#45;&gt;140146259404608</title>
<path fill="none" stroke="black" d="M768.46,-424.37C757.93,-414.31 740.31,-397.48 727.26,-385.01"/>
<polygon fill="black" stroke="black" points="729.47,-382.28 719.82,-377.91 724.64,-387.34 729.47,-382.28"/>
</g>
<!-- 140146259436832 -->
<g id="node47" class="node">
<title>140146259436832</title>
<polygon fill="lightblue" stroke="black" points="866,-515 741,-515 741,-485 866,-485 866,-515"/>
<text text-anchor="middle" x="803.5" y="-503" font-family="monospace" font-size="10.00">pipeline.13.weight</text>
<text text-anchor="middle" x="803.5" y="-492" font-family="monospace" font-size="10.00"> (128, 512)</text>
</g>
<!-- 140146259436832&#45;&gt;140146259395584 -->
<g id="edge45" class="edge">
<title>140146259436832&#45;&gt;140146259395584</title>
<path fill="none" stroke="black" d="M797.73,-484.8C793.95,-475.5 788.99,-463.27 784.92,-453.26"/>
<polygon fill="black" stroke="black" points="788.1,-451.79 781.09,-443.84 781.61,-454.43 788.1,-451.79"/>
</g>
<!-- 140146259409312 -->
<g id="node48" class="node">
<title>140146259409312</title>
<polygon fill="lightgrey" stroke="black" points="808,-251 731,-251 731,-232 808,-232 808,-251"/>
<text text-anchor="middle" x="769.5" y="-239" font-family="monospace" font-size="10.00">TBackward0</text>
</g>
<!-- 140146259409312&#45;&gt;140146259399760 -->
<g id="edge46" class="edge">
<title>140146259409312&#45;&gt;140146259399760</title>
<path fill="none" stroke="black" d="M747.49,-231.98C725.05,-223.3 690.02,-209.75 664.51,-199.88"/>
<polygon fill="black" stroke="black" points="665.5,-196.51 654.91,-196.17 662.98,-203.04 665.5,-196.51"/>
</g>
<!-- 140146259408448 -->
<g id="node49" class="node">
<title>140146259408448</title>
<polygon fill="lightgrey" stroke="black" points="854,-311.5 753,-311.5 753,-292.5 854,-292.5 854,-311.5"/>
<text text-anchor="middle" x="803.5" y="-299.5" font-family="monospace" font-size="10.00">AccumulateGrad</text>
</g>
<!-- 140146259408448&#45;&gt;140146259409312 -->
<g id="edge47" class="edge">
<title>140146259408448&#45;&gt;140146259409312</title>
<path fill="none" stroke="black" d="M798.48,-292.37C793.56,-283.9 785.91,-270.74 779.71,-260.07"/>
<polygon fill="black" stroke="black" points="782.59,-258.05 774.54,-251.17 776.54,-261.57 782.59,-258.05"/>
</g>
<!-- 140146259436992 -->
<g id="node50" class="node">
<title>140146259436992</title>
<polygon fill="lightblue" stroke="black" points="892,-383 767,-383 767,-353 892,-353 892,-383"/>
<text text-anchor="middle" x="829.5" y="-371" font-family="monospace" font-size="10.00">pipeline.15.weight</text>
<text text-anchor="middle" x="829.5" y="-360" font-family="monospace" font-size="10.00"> (26, 128)</text>
</g>
<!-- 140146259436992&#45;&gt;140146259408448 -->
<g id="edge48" class="edge">
<title>140146259436992&#45;&gt;140146259408448</title>
<path fill="none" stroke="black" d="M823.73,-352.8C819.95,-343.5 814.99,-331.27 810.92,-321.26"/>
<polygon fill="black" stroke="black" points="814.1,-319.79 807.09,-311.84 807.61,-322.43 814.1,-319.79"/>
</g>
</g>
</svg>
